<mxfile host="app.diagrams.net" agent="Mozilla/5.0 (X11; Linux x86_64) AppleWebKit/537.36 (KHTML, like Gecko) Chrome/139.0.0.0 Safari/537.36" version="28.0.9">
  <diagram name="Page-1" id="WH82sPr6WG5CvrV6LaHn">
    <mxGraphModel dx="1426" dy="546" grid="1" gridSize="10" guides="1" tooltips="1" connect="1" arrows="1" fold="1" page="1" pageScale="1" pageWidth="850" pageHeight="1100" math="0" shadow="0">
      <root>
        <mxCell id="0" />
        <mxCell id="1" parent="0" />
        <mxCell id="P9DBmMX6wSuy7aMpLpV5-1" value="Postgres" style="strokeWidth=2;html=1;shape=mxgraph.flowchart.database;whiteSpace=wrap;" vertex="1" parent="1">
          <mxGeometry x="130" y="340" width="60" height="70" as="geometry" />
        </mxCell>
        <mxCell id="P9DBmMX6wSuy7aMpLpV5-2" value="Redis" style="rounded=1;whiteSpace=wrap;html=1;absoluteArcSize=1;arcSize=14;strokeWidth=2;" vertex="1" parent="1">
          <mxGeometry x="415" y="310" width="50" height="60" as="geometry" />
        </mxCell>
        <mxCell id="P9DBmMX6wSuy7aMpLpV5-3" value="Order Service&lt;div&gt;&lt;font style=&quot;font-size: 8px;&quot;&gt;(reservation, payments)&lt;/font&gt;&lt;/div&gt;" style="rounded=1;whiteSpace=wrap;html=1;absoluteArcSize=1;arcSize=14;strokeWidth=2;" vertex="1" parent="1">
          <mxGeometry x="120" y="190" width="100" height="60" as="geometry" />
        </mxCell>
        <mxCell id="P9DBmMX6wSuy7aMpLpV5-4" value="Catalog Service&lt;div&gt;&lt;font style=&quot;font-size: 8px;&quot;&gt;(manage events, seats, zones)&lt;/font&gt;&lt;/div&gt;" style="rounded=1;whiteSpace=wrap;html=1;absoluteArcSize=1;arcSize=14;strokeWidth=2;" vertex="1" parent="1">
          <mxGeometry x="390" y="190" width="100" height="60" as="geometry" />
        </mxCell>
        <mxCell id="P9DBmMX6wSuy7aMpLpV5-5" value="Write intensive" style="text;html=1;align=center;verticalAlign=middle;whiteSpace=wrap;rounded=0;" vertex="1" parent="1">
          <mxGeometry x="140" y="150" width="60" height="30" as="geometry" />
        </mxCell>
        <mxCell id="P9DBmMX6wSuy7aMpLpV5-6" value="Read intensive" style="text;html=1;align=center;verticalAlign=middle;whiteSpace=wrap;rounded=0;" vertex="1" parent="1">
          <mxGeometry x="425" y="150" width="60" height="30" as="geometry" />
        </mxCell>
        <mxCell id="P9DBmMX6wSuy7aMpLpV5-7" value="API&lt;div&gt;gateway&lt;/div&gt;" style="ellipse;whiteSpace=wrap;html=1;aspect=fixed;" vertex="1" parent="1">
          <mxGeometry x="280" y="10" width="80" height="80" as="geometry" />
        </mxCell>
        <mxCell id="P9DBmMX6wSuy7aMpLpV5-10" value="" style="endArrow=classic;startArrow=classic;html=1;rounded=0;exitX=0.904;exitY=-0.04;exitDx=0;exitDy=0;exitPerimeter=0;entryX=0.086;entryY=0.755;entryDx=0;entryDy=0;entryPerimeter=0;" edge="1" parent="1" source="P9DBmMX6wSuy7aMpLpV5-3" target="P9DBmMX6wSuy7aMpLpV5-7">
          <mxGeometry width="50" height="50" relative="1" as="geometry">
            <mxPoint x="360" y="180" as="sourcePoint" />
            <mxPoint x="410" y="130" as="targetPoint" />
          </mxGeometry>
        </mxCell>
        <mxCell id="P9DBmMX6wSuy7aMpLpV5-11" value="" style="endArrow=classic;startArrow=classic;html=1;rounded=0;entryX=1;entryY=1;entryDx=0;entryDy=0;" edge="1" parent="1" source="P9DBmMX6wSuy7aMpLpV5-4" target="P9DBmMX6wSuy7aMpLpV5-7">
          <mxGeometry width="50" height="50" relative="1" as="geometry">
            <mxPoint x="350" y="258" as="sourcePoint" />
            <mxPoint x="427" y="140" as="targetPoint" />
          </mxGeometry>
        </mxCell>
        <mxCell id="P9DBmMX6wSuy7aMpLpV5-13" value="" style="endArrow=classic;startArrow=classic;html=1;rounded=0;exitX=0.5;exitY=0;exitDx=0;exitDy=0;entryX=0.5;entryY=1;entryDx=0;entryDy=0;" edge="1" parent="1" source="P9DBmMX6wSuy7aMpLpV5-2" target="P9DBmMX6wSuy7aMpLpV5-4">
          <mxGeometry width="50" height="50" relative="1" as="geometry">
            <mxPoint x="280" y="268" as="sourcePoint" />
            <mxPoint x="357" y="150" as="targetPoint" />
          </mxGeometry>
        </mxCell>
        <mxCell id="P9DBmMX6wSuy7aMpLpV5-14" value="" style="endArrow=classic;startArrow=classic;html=1;rounded=0;exitX=0.5;exitY=0;exitDx=0;exitDy=0;exitPerimeter=0;entryX=0.397;entryY=1.067;entryDx=0;entryDy=0;entryPerimeter=0;" edge="1" parent="1" source="P9DBmMX6wSuy7aMpLpV5-1" target="P9DBmMX6wSuy7aMpLpV5-3">
          <mxGeometry width="50" height="50" relative="1" as="geometry">
            <mxPoint x="310" y="290" as="sourcePoint" />
            <mxPoint x="360" y="240" as="targetPoint" />
          </mxGeometry>
        </mxCell>
      </root>
    </mxGraphModel>
  </diagram>
</mxfile>
